{"glyphs":{"0":{"ha":783,"x_min":51,"x_max":732,"o":"m 224 1017 l 556 1017 q 712 888 656 983 q 732 811 729 857 l 732 210 q 668 71 717 119 q 539 3 587 3 l 529 0 l 251 0 q 98 95 142 30 q 51 281 51 153 l 51 777 q 224 1017 51 950 m 312 783 l 313 237 q 347 210 319 210 l 441 210 q 475 244 467 203 l 475 780 q 451 810 475 802 l 346 810 q 312 783 315 810 z "},"1":{"ha":486,"x_min":51,"x_max":435,"o":"m 195 1017 l 344 1017 l 435 1017 l 435 0 l 313 -1 l 195 -1 l 195 783 q 51 782 123 783 q 51 850 51 813 l 51 968 q 195 1017 124 993 z "},"2":{"ha":766,"x_min":51,"x_max":715,"o":"m 549 1017 q 715 790 715 962 l 715 685 q 682 570 696 570 q 427 319 682 544 l 326 224 l 326 217 l 332 210 l 702 210 l 702 0 l 51 0 l 51 71 l 51 254 q 163 397 51 315 l 309 539 q 454 699 454 673 l 454 732 q 417 804 442 797 l 370 804 l 91 804 l 92 1017 l 549 1017 z "},"3":{"ha":719,"x_min":51,"x_max":668,"o":"m 51 1017 l 509 1017 q 627 936 566 1001 q 668 773 668 869 q 634 624 660 682 q 522 522 559 522 l 522 515 q 614 434 570 485 q 668 251 668 353 q 512 0 668 47 l 51 0 l 51 207 l 312 210 q 404 261 404 210 l 407 281 l 407 346 q 319 407 390 407 l 122 406 l 122 624 l 312 624 q 393 654 393 624 q 407 685 407 669 l 407 739 q 339 800 407 800 l 292 804 l 51 804 l 51 1017 z "},"4":{"ha":834,"x_min":51,"x_max":783,"o":"m 326 1017 l 631 1017 q 678 936 667 1017 l 678 485 l 675 417 l 685 410 l 783 410 l 783 193 l 685 193 l 675 186 l 675 0 l 437 0 l 437 186 l 431 193 l 125 193 q 51 264 51 193 l 51 366 q 149 637 51 393 l 166 682 q 186 746 186 728 q 254 919 239 861 q 326 1017 294 1017 m 427 783 q 366 610 421 749 l 295 427 l 295 410 l 431 410 l 437 417 l 437 702 l 441 773 l 437 783 l 427 783 z "},"5":{"ha":715,"x_min":51,"x_max":664,"o":"m 51 1017 l 664 1017 l 664 804 l 334 804 q 311 789 313 799 l 311 650 l 465 650 q 641 538 581 650 q 664 367 661 538 l 664 264 q 566 28 664 64 q 432 0 541 0 l 139 0 q 51 79 51 0 l 51 149 q 139 214 51 214 l 307 214 q 404 297 404 214 l 404 344 q 330 432 404 432 l 130 432 q 51 497 51 445 l 51 1017 z "},"6":{"ha":766,"x_min":53,"x_max":715,"o":"m 216 1017 l 647 1017 l 647 834 l 345 834 q 288 770 295 834 l 288 665 l 515 665 q 714 519 680 671 l 715 214 q 545 0 715 2 l 220 0 q 98 85 140 23 q 54 243 54 139 l 54 790 q 216 1017 51 996 m 288 465 l 288 227 q 332 190 311 190 l 423 190 q 467 234 467 201 l 467 427 q 413 475 467 463 l 298 475 l 288 465 z "},"7":{"ha":719,"x_min":51,"x_max":668,"o":"m 51 1017 l 658 1017 l 668 1007 l 668 712 q 502 410 663 627 q 465 322 467 349 l 465 0 l 200 0 l 200 264 q 336 597 200 451 q 417 797 417 702 l 407 812 l 51 812 l 51 1017 z "},"8":{"ha":797,"x_min":51,"x_max":746,"o":"m 210 1017 l 587 1017 q 702 939 665 991 q 746 787 746 891 l 746 783 q 604 519 746 587 q 651 481 606 507 q 746 264 746 395 l 746 237 q 617 14 746 57 l 587 0 l 207 0 q 105 64 161 10 q 51 200 67 99 l 51 285 q 88 404 73 404 q 193 515 88 435 l 193 522 q 88 617 161 522 q 51 746 51 705 l 51 814 q 98 943 62 902 q 210 1017 153 1002 m 309 712 q 373 624 309 635 l 407 624 q 485 699 485 624 l 485 726 q 427 800 485 800 l 407 807 q 322 773 322 798 q 309 712 309 773 m 309 319 l 309 295 q 366 217 309 217 l 410 207 q 481 264 481 216 l 488 342 q 393 407 471 407 q 309 319 309 407 z "},"9":{"ha":767,"x_min":51,"x_max":716,"o":"m 546 1014 q 715 773 716 996 l 715 231 q 539 0 707 0 l 119 0 l 119 180 l 420 180 q 471 223 471 180 l 471 349 l 251 349 q 51 495 68 347 l 51 800 q 220 1014 62 997 l 546 1014 m 298 780 l 298 590 q 346 539 298 549 l 468 539 l 478 549 l 478 787 q 434 824 479 827 l 336 824 q 298 780 296 823 z "}," ":{"ha":203,"x_min":0,"x_max":0,"o":""}," ":{"ha":203,"x_min":0,"x_max":0,"o":""},"!":{"ha":339,"x_min":51,"x_max":288,"o":"m 61 1017 l 278 1017 l 288 1007 l 288 329 l 278 319 l 61 319 l 51 329 l 51 1007 l 61 1017 m 61 241 l 278 241 l 288 231 l 288 10 l 278 0 l 61 0 l 51 10 l 51 231 l 61 241 z "},"\"":{"ha":493,"x_min":0,"x_max":0,"o":""},"#":{"ha":772,"x_min":0,"x_max":0,"o":""},"$":{"ha":772,"x_min":0,"x_max":0,"o":""},"%":{"ha":1235,"x_min":0,"x_max":0,"o":""},"&":{"ha":926,"x_min":0,"x_max":0,"o":""},"'":{"ha":265,"x_min":0,"x_max":0,"o":""},"(":{"ha":463,"x_min":0,"x_max":0,"o":""},")":{"ha":463,"x_min":0,"x_max":0,"o":""},"*":{"ha":541,"x_min":0,"x_max":0,"o":""},"+":{"ha":811,"x_min":0,"x_max":0,"o":""},",":{"ha":386,"x_min":0,"x_max":0,"o":""},"-":{"ha":463,"x_min":0,"x_max":0,"o":""},"­":{"ha":463,"x_min":0,"x_max":0,"o":""},".":{"ha":292,"x_min":27,"x_max":264,"o":"m 37 241 l 254 241 l 264 231 l 264 10 l 254 0 l 37 0 l 27 10 l 27 231 l 37 241 z "},"/":{"ha":386,"x_min":0,"x_max":0,"o":""},":":{"ha":386,"x_min":0,"x_max":0,"o":""},";":{"ha":386,"x_min":0,"x_max":0,"o":""},";":{"ha":386,"x_min":0,"x_max":0,"o":""},"<":{"ha":811,"x_min":0,"x_max":0,"o":""},"=":{"ha":811,"x_min":0,"x_max":0,"o":""},">":{"ha":811,"x_min":0,"x_max":0,"o":""},"?":{"ha":772,"x_min":0,"x_max":0,"o":""},"@":{"ha":1410,"x_min":0,"x_max":0,"o":""},"A":{"ha":892,"x_min":51,"x_max":841,"o":"m 268 1017 l 624 1017 q 665 905 656 1017 l 841 14 q 821 0 838 0 l 610 0 q 576 81 583 0 q 543 241 554 228 l 437 241 l 349 241 q 305 14 336 241 l 292 0 l 61 0 l 51 10 q 197 797 149 507 l 241 1004 q 268 1017 255 1017 m 356 431 l 359 427 l 488 427 l 495 434 l 431 793 l 427 797 l 424 797 q 393 678 408 797 q 356 431 356 474 z "},"a":{"ha":892,"x_min":51,"x_max":841,"o":"m 268 1017 l 624 1017 q 665 905 656 1017 l 841 14 q 821 0 838 0 l 610 0 q 576 81 583 0 q 543 241 554 228 l 437 241 l 349 241 q 305 14 336 241 l 292 0 l 61 0 l 51 10 q 197 797 149 507 l 241 1004 q 268 1017 255 1017 m 356 431 l 359 427 l 488 427 l 495 434 l 431 793 l 427 797 l 424 797 q 393 678 408 797 q 356 431 356 474 z "},"B":{"ha":770,"x_min":51,"x_max":719,"o":"m 71 1017 l 505 1017 q 637 946 572 1006 q 695 800 688 883 l 695 695 q 648 576 695 642 q 614 532 614 551 q 712 397 712 465 q 719 363 719 397 l 719 231 q 624 44 719 130 q 519 0 579 16 l 64 0 q 51 31 51 5 l 51 990 q 71 1017 51 1017 m 288 817 l 288 610 l 295 604 l 424 604 q 461 637 449 614 l 461 777 q 414 824 456 824 l 295 824 l 288 817 m 288 427 l 288 197 l 312 193 l 407 193 q 471 248 471 193 l 471 363 q 417 434 471 434 l 295 434 l 288 427 z "},"b":{"ha":770,"x_min":51,"x_max":719,"o":"m 71 1017 l 505 1017 q 637 946 572 1006 q 695 800 688 883 l 695 695 q 648 576 695 642 q 614 532 614 551 q 712 397 712 465 q 719 363 719 397 l 719 231 q 624 44 719 130 q 519 0 579 16 l 64 0 q 51 31 51 5 l 51 990 q 71 1017 51 1017 m 288 817 l 288 610 l 295 604 l 424 604 q 461 637 449 614 l 461 777 q 414 824 456 824 l 295 824 l 288 817 m 288 427 l 288 197 l 312 193 l 407 193 q 471 248 471 193 l 471 363 q 417 434 471 434 l 295 434 l 288 427 z "},"C":{"ha":747,"x_min":51,"x_max":696,"o":"m 282 1017 l 665 1017 q 696 980 696 1017 l 696 838 q 659 800 696 800 l 340 800 q 313 773 313 802 l 312 247 q 346 210 316 214 l 665 210 q 696 186 696 210 l 696 27 q 675 0 696 0 l 241 0 q 116 71 174 15 q 52 244 52 142 l 51 780 l 52 797 q 116 946 52 867 q 272 1014 193 1014 l 282 1017 z "},"c":{"ha":747,"x_min":51,"x_max":696,"o":"m 282 1017 l 665 1017 q 696 980 696 1017 l 696 838 q 659 800 696 800 l 340 800 q 313 773 313 802 l 312 247 q 346 210 316 214 l 665 210 q 696 186 696 210 l 696 27 q 675 0 696 0 l 241 0 q 116 71 174 15 q 52 244 52 142 l 51 780 l 52 797 q 116 946 52 867 q 272 1014 193 1014 l 282 1017 z "},"D":{"ha":770,"x_min":51,"x_max":719,"o":"m 532 1017 q 684 951 637 1000 q 715 827 716 900 l 719 220 q 654 75 714 146 q 498 0 581 3 l 71 0 q 51 27 61 0 l 51 980 q 75 1017 51 1017 l 532 1017 m 292 831 l 292 200 q 305 190 292 190 l 410 190 q 478 237 475 190 l 478 783 q 393 831 477 835 l 292 831 z "},"d":{"ha":770,"x_min":51,"x_max":719,"o":"m 532 1017 q 684 951 637 1000 q 715 827 716 900 l 719 220 q 654 75 714 146 q 498 0 581 3 l 71 0 q 51 27 61 0 l 51 980 q 75 1017 51 1017 l 532 1017 m 292 831 l 292 200 q 305 190 292 190 l 410 190 q 478 237 475 190 l 478 783 q 393 831 477 835 l 292 831 z "},"E":{"ha":729,"x_min":51,"x_max":678,"o":"m 64 1017 l 651 1017 l 661 1007 l 661 854 q 637 831 661 831 l 302 831 q 281 810 281 831 l 281 634 l 292 624 l 576 624 q 607 600 607 624 l 607 454 q 587 434 607 434 l 302 434 q 281 414 281 434 l 281 244 q 370 186 281 186 l 654 186 q 678 163 678 186 l 678 10 l 668 0 l 231 0 q 85 102 134 26 q 51 234 51 170 l 51 977 q 64 1017 51 1017 z "},"e":{"ha":729,"x_min":51,"x_max":678,"o":"m 64 1017 l 651 1017 l 661 1007 l 661 854 q 637 831 661 831 l 302 831 q 281 810 281 831 l 281 634 l 292 624 l 576 624 q 607 600 607 624 l 607 454 q 587 434 607 434 l 302 434 q 281 414 281 434 l 281 244 q 370 186 281 186 l 654 186 q 678 163 678 186 l 678 10 l 668 0 l 231 0 q 85 102 134 26 q 51 234 51 170 l 51 977 q 64 1017 51 1017 z "},"F":{"ha":804,"x_min":51,"x_max":753,"o":"m 64 1017 l 732 1017 q 753 990 753 1017 l 753 831 q 722 800 753 800 l 346 800 l 336 790 l 336 607 q 346 587 336 595 l 387 587 l 637 587 q 651 563 651 581 l 651 387 q 627 363 651 363 l 342 363 l 336 356 l 336 10 l 326 0 l 64 0 q 51 47 54 0 l 54 987 l 51 990 l 51 994 q 64 1017 57 1017 z "},"f":{"ha":804,"x_min":51,"x_max":753,"o":"m 64 1017 l 732 1017 q 753 990 753 1017 l 753 831 q 722 800 753 800 l 346 800 l 336 790 l 336 607 q 346 587 336 595 l 387 587 l 637 587 q 651 563 651 581 l 651 387 q 627 363 651 363 l 342 363 l 336 356 l 336 10 l 326 0 l 64 0 q 51 47 54 0 l 54 987 l 51 990 l 51 994 q 64 1017 57 1017 z "},"G":{"ha":770,"x_min":51,"x_max":719,"o":"m 217 1017 l 675 1017 l 685 1007 l 685 848 q 651 821 685 821 l 353 821 q 298 777 309 821 l 298 241 q 332 203 315 212 l 451 203 q 471 224 471 203 l 471 556 q 492 573 471 562 l 495 570 l 692 570 q 719 543 719 570 l 719 31 q 705 0 719 5 l 258 0 q 88 105 134 30 q 51 214 51 173 l 51 814 q 125 966 51 880 q 217 1017 190 1012 z "},"g":{"ha":770,"x_min":51,"x_max":719,"o":"m 217 1017 l 675 1017 l 685 1007 l 685 848 q 651 821 685 821 l 353 821 q 298 777 309 821 l 298 241 q 332 203 315 212 l 451 203 q 471 224 471 203 l 471 556 q 492 573 471 562 l 495 570 l 692 570 q 719 543 719 570 l 719 31 q 705 0 719 5 l 258 0 q 88 105 134 30 q 51 214 51 173 l 51 814 q 125 966 51 880 q 217 1017 190 1012 z "},"H":{"ha":920,"x_min":51,"x_max":869,"o":"m 64 1017 l 326 1017 l 336 1007 l 336 637 l 346 624 l 576 624 l 587 634 l 587 1007 l 597 1017 l 858 1017 l 868 1007 l 869 31 q 842 0 869 0 l 617 0 q 590 31 590 0 l 590 407 q 570 420 587 420 l 346 420 l 336 410 l 335 34 q 311 0 335 0 l 78 0 q 51 31 51 0 l 51 987 q 64 1017 51 1013 z "},"h":{"ha":920,"x_min":51,"x_max":869,"o":"m 64 1017 l 326 1017 l 336 1007 l 336 637 l 346 624 l 576 624 l 587 634 l 587 1007 l 597 1017 l 858 1017 l 868 1007 l 869 31 q 842 0 869 0 l 617 0 q 590 31 590 0 l 590 407 q 570 420 587 420 l 346 420 l 336 410 l 335 34 q 311 0 335 0 l 78 0 q 51 31 51 0 l 51 987 q 64 1017 51 1013 z "},"I":{"ha":346,"x_min":51,"x_max":295,"o":"m 64 1017 l 281 1017 q 295 987 295 1013 l 295 10 l 285 0 l 64 0 q 51 31 51 5 l 51 987 q 64 1017 51 1013 z "},"i":{"ha":346,"x_min":51,"x_max":295,"o":"m 64 1017 l 281 1017 q 295 987 295 1013 l 295 10 l 285 0 l 64 0 q 51 31 51 5 l 51 987 q 64 1017 51 1013 z "},"J":{"ha":593,"x_min":51,"x_max":543,"o":"m 309 1017 l 532 1017 l 543 1007 l 543 248 q 468 17 543 56 l 424 0 l 61 0 l 51 10 l 51 193 l 61 203 l 275 203 q 298 244 298 215 l 298 1007 l 309 1017 z "},"j":{"ha":593,"x_min":51,"x_max":543,"o":"m 309 1017 l 532 1017 l 543 1007 l 543 248 q 468 17 543 56 l 424 0 l 61 0 l 51 10 l 51 193 l 61 203 l 275 203 q 298 244 298 215 l 298 1007 l 309 1017 z "},"K":{"ha":821,"x_min":51,"x_max":770,"o":"m 61 1017 l 268 1017 l 278 1007 l 278 634 q 342 597 278 597 q 400 631 390 597 l 444 753 l 492 888 q 546 1017 535 1009 l 760 1017 l 770 1007 l 695 814 l 634 665 l 617 617 l 617 597 q 688 519 617 580 q 719 397 709 491 l 719 37 q 702 0 713 0 l 498 0 l 488 10 l 488 339 q 427 431 476 431 l 346 431 q 278 397 278 431 l 278 10 l 268 0 l 64 0 q 51 31 51 5 l 51 1007 l 61 1017 z "},"k":{"ha":821,"x_min":51,"x_max":770,"o":"m 61 1017 l 268 1017 l 278 1007 l 278 634 q 342 597 278 597 q 400 631 390 597 l 444 753 l 492 888 q 546 1017 535 1009 l 760 1017 l 770 1007 l 695 814 l 634 665 l 617 617 l 617 597 q 688 519 617 580 q 719 397 709 491 l 719 37 q 702 0 713 0 l 498 0 l 488 10 l 488 339 q 427 431 476 431 l 346 431 q 278 397 278 431 l 278 10 l 268 0 l 64 0 q 51 31 51 5 l 51 1007 l 61 1017 z "},"L":{"ha":827,"x_min":51,"x_max":777,"o":"m 64 1017 l 315 1017 q 339 973 339 1017 l 339 498 l 339 251 q 387 203 342 203 l 739 203 q 777 173 777 203 l 777 10 l 766 0 l 264 0 q 102 88 190 9 q 51 227 51 163 l 51 987 q 64 1017 51 1013 z "},"l":{"ha":827,"x_min":51,"x_max":777,"o":"m 64 1017 l 315 1017 q 339 973 339 1017 l 339 498 l 339 251 q 387 203 342 203 l 739 203 q 777 173 777 203 l 777 10 l 766 0 l 264 0 q 102 88 190 9 q 51 227 51 163 l 51 987 q 64 1017 51 1013 z "},"M":{"ha":1145,"x_min":51,"x_max":1093,"o":"m 81 1017 l 410 1017 q 458 827 427 1006 l 556 309 l 573 309 q 682 865 580 309 q 719 1017 706 1017 l 1082 1017 l 1092 1007 l 1092 68 q 1072 0 1095 -7 l 882 0 q 858 54 858 0 l 858 692 l 848 705 l 834 705 q 685 7 818 705 l 675 0 l 461 0 q 312 695 445 0 l 298 707 q 275 692 275 707 l 275 37 q 258 0 276 -1 l 64 0 q 51 31 51 5 l 51 987 q 81 1017 55 1017 z "},"m":{"ha":1145,"x_min":51,"x_max":1093,"o":"m 81 1017 l 410 1017 q 458 827 427 1006 l 556 309 l 573 309 q 682 865 580 309 q 719 1017 706 1017 l 1082 1017 l 1092 1007 l 1092 68 q 1072 0 1095 -7 l 882 0 q 858 54 858 0 l 858 692 l 848 705 l 834 705 q 685 7 818 705 l 675 0 l 461 0 q 312 695 445 0 l 298 707 q 275 692 275 707 l 275 37 q 258 0 276 -1 l 64 0 q 51 31 51 5 l 51 987 q 81 1017 55 1017 z "},"N":{"ha":905,"x_min":51,"x_max":854,"o":"m 61 1017 l 387 1017 q 478 773 406 1002 l 590 441 l 600 441 l 600 991 q 614 1017 606 1017 l 844 1017 l 854 1007 l 854 10 l 844 0 l 529 0 q 498 47 507 0 l 319 580 l 309 580 l 309 549 l 309 27 q 288 0 309 0 l 61 0 l 51 10 l 51 1007 l 61 1017 z "},"n":{"ha":905,"x_min":51,"x_max":854,"o":"m 61 1017 l 387 1017 q 478 773 406 1002 l 590 441 l 600 441 l 600 991 q 614 1017 606 1017 l 844 1017 l 854 1007 l 854 10 l 844 0 l 529 0 q 498 47 507 0 l 319 580 l 309 580 l 309 549 l 309 27 q 288 0 309 0 l 61 0 l 51 10 l 51 1007 l 61 1017 z "},"O":{"ha":777,"x_min":51,"x_max":726,"o":"m 217 1017 l 553 1017 q 671 946 613 1005 q 722 831 722 874 l 726 739 l 726 305 q 699 125 726 125 q 590 14 673 65 l 553 0 l 217 0 q 68 125 121 32 q 51 227 51 159 l 51 793 q 217 1017 51 963 m 298 777 l 298 268 q 339 203 298 203 q 468 237 468 197 l 471 268 l 471 766 q 431 824 475 817 l 329 824 q 298 777 292 810 z "},"o":{"ha":777,"x_min":51,"x_max":726,"o":"m 217 1017 l 553 1017 q 671 946 613 1005 q 722 831 722 874 l 726 739 l 726 305 q 699 125 726 125 q 590 14 673 65 l 553 0 l 217 0 q 68 125 121 32 q 51 227 51 159 l 51 793 q 217 1017 51 963 m 298 777 l 298 268 q 339 203 298 203 q 468 237 468 197 l 471 268 l 471 766 q 431 824 475 817 l 329 824 q 298 777 292 810 z "},"P":{"ha":763,"x_min":51,"x_max":712,"o":"m 61 1017 l 549 1017 q 712 790 712 958 l 712 576 q 658 417 712 467 q 461 339 602 339 l 322 339 q 302 319 302 339 l 302 17 q 278 0 295 0 l 75 0 q 51 27 51 0 l 51 1007 l 61 1017 m 302 800 l 302 549 l 315 536 l 414 536 q 468 573 452 530 l 468 709 l 471 773 q 417 821 466 820 l 322 821 q 302 800 302 821 z "},"p":{"ha":763,"x_min":51,"x_max":712,"o":"m 61 1017 l 549 1017 q 712 790 712 958 l 712 576 q 658 417 712 467 q 461 339 602 339 l 322 339 q 302 319 302 339 l 302 17 q 278 0 295 0 l 75 0 q 51 27 51 0 l 51 1007 l 61 1017 m 302 800 l 302 549 l 315 536 l 414 536 q 468 573 452 530 l 468 709 l 471 773 q 417 821 466 820 l 322 821 q 302 800 302 821 z "},"Q":{"ha":888,"x_min":51,"x_max":838,"o":"m 241 1017 l 590 1017 l 658 994 q 780 760 780 912 l 780 285 l 777 217 q 838 142 838 158 l 838 109 q 797 40 838 80 q 739 0 756 0 l 692 0 q 648 27 682 0 l 597 0 l 553 0 l 244 0 q 102 92 152 26 q 51 281 51 151 l 51 749 q 159 980 51 918 q 224 1010 174 994 q 241 1017 224 1017 m 309 292 q 376 214 312 217 l 437 214 q 519 309 519 214 l 519 732 q 410 807 519 807 q 319 770 322 802 q 309 740 313 770 l 309 292 z "},"q":{"ha":888,"x_min":51,"x_max":838,"o":"m 241 1017 l 590 1017 l 658 994 q 780 760 780 912 l 780 285 l 777 217 q 838 142 838 158 l 838 109 q 797 40 838 80 q 739 0 756 0 l 692 0 q 648 27 682 0 l 597 0 l 553 0 l 244 0 q 102 92 152 26 q 51 281 51 151 l 51 749 q 159 980 51 918 q 224 1010 174 994 q 241 1017 224 1017 m 309 292 q 376 214 312 217 l 437 214 q 519 309 519 214 l 519 732 q 410 807 519 807 q 319 770 322 802 q 309 740 313 770 l 309 292 z "},"R":{"ha":760,"x_min":51,"x_max":709,"o":"m 61 1017 l 522 1017 q 665 929 610 996 q 705 760 705 884 l 705 682 q 665 529 705 566 l 651 512 l 651 505 q 709 356 709 451 l 709 20 q 682 0 700 0 l 492 0 q 465 31 465 0 l 465 359 q 407 417 454 417 l 312 417 l 298 404 l 298 37 q 271 0 298 0 l 80 0 q 53 31 60 0 l 51 1007 l 61 1017 m 298 810 l 298 610 l 309 600 l 414 600 q 465 661 454 600 l 465 770 q 397 824 452 824 l 312 824 l 298 810 z "},"r":{"ha":760,"x_min":51,"x_max":709,"o":"m 61 1017 l 522 1017 q 665 929 610 996 q 705 760 705 884 l 705 682 q 665 529 705 566 l 651 512 l 651 505 q 709 356 709 451 l 709 20 q 682 0 700 0 l 492 0 q 465 31 465 0 l 465 359 q 407 417 454 417 l 312 417 l 298 404 l 298 37 q 271 0 298 0 l 80 0 q 53 31 60 0 l 51 1007 l 61 1017 m 298 810 l 298 610 l 309 600 l 414 600 q 465 661 454 600 l 465 770 q 397 824 452 824 l 312 824 l 298 810 z "},"S":{"ha":756,"x_min":51,"x_max":705,"o":"m 231 1017 l 665 1017 l 675 1007 l 675 848 q 661 824 675 829 l 353 824 q 298 766 298 808 l 298 695 q 400 624 298 639 q 614 573 426 624 q 705 390 705 518 l 705 248 q 559 17 705 80 l 475 0 l 92 0 q 61 20 73 0 l 61 190 l 81 207 l 105 203 l 404 203 q 458 258 458 214 l 458 342 q 414 404 458 389 q 109 495 109 468 q 51 651 51 545 l 51 797 q 190 1004 51 937 l 231 1017 z "},"s":{"ha":756,"x_min":51,"x_max":705,"o":"m 231 1017 l 665 1017 l 675 1007 l 675 848 q 661 824 675 829 l 353 824 q 298 766 298 808 l 298 695 q 400 624 298 639 q 614 573 426 624 q 705 390 705 518 l 705 248 q 559 17 705 80 l 475 0 l 92 0 q 61 20 73 0 l 61 190 l 81 207 l 105 203 l 404 203 q 458 258 458 214 l 458 342 q 414 404 458 389 q 109 495 109 468 q 51 651 51 545 l 51 797 q 190 1004 51 937 l 231 1017 z "},"T":{"ha":777,"x_min":51,"x_max":726,"o":"m 75 1017 l 715 1017 l 726 1007 l 725 848 q 701 821 722 821 l 536 821 q 512 797 512 821 l 512 27 q 492 0 512 0 l 288 0 q 264 34 264 0 l 264 648 l 264 807 l 245 821 l 85 821 q 51 836 51 823 l 51 982 l 51 994 q 75 1017 55 1017 z "},"t":{"ha":777,"x_min":51,"x_max":726,"o":"m 75 1017 l 715 1017 l 726 1007 l 725 848 q 701 821 722 821 l 536 821 q 512 797 512 821 l 512 27 q 492 0 512 0 l 288 0 q 264 34 264 0 l 264 648 l 264 807 l 245 821 l 85 821 q 51 836 51 823 l 51 982 l 51 994 q 75 1017 55 1017 z "},"U":{"ha":770,"x_min":51,"x_max":719,"o":"m 75 1017 l 285 1017 q 298 987 298 1013 l 295 251 q 353 197 313 197 l 420 197 q 471 237 446 197 l 471 987 q 485 1017 471 1013 l 695 1017 q 719 990 719 1017 l 719 231 q 600 27 719 104 l 522 0 l 244 0 q 88 102 132 32 q 54 224 72 102 l 51 994 q 75 1017 55 1017 z "},"u":{"ha":770,"x_min":51,"x_max":719,"o":"m 75 1017 l 285 1017 q 298 987 298 1013 l 295 251 q 353 197 313 197 l 420 197 q 471 237 446 197 l 471 987 q 485 1017 471 1013 l 695 1017 q 719 990 719 1017 l 719 231 q 600 27 719 104 l 522 0 l 244 0 q 88 102 132 32 q 54 224 72 102 l 51 994 q 75 1017 55 1017 z "},"V":{"ha":858,"x_min":51,"x_max":807,"o":"m 61 1017 l 271 1017 q 336 726 286 1017 l 424 288 l 427 285 l 434 285 q 475 448 448 285 q 587 1014 559 905 l 600 1017 l 800 1017 l 807 1010 l 807 1007 l 627 136 q 587 0 600 0 l 278 0 q 220 227 262 0 q 51 1004 105 735 l 51 1007 l 61 1017 z "},"v":{"ha":858,"x_min":51,"x_max":807,"o":"m 61 1017 l 271 1017 q 336 726 286 1017 l 424 288 l 427 285 l 434 285 q 475 448 448 285 q 587 1014 559 905 l 600 1017 l 800 1017 l 807 1010 l 807 1007 l 627 136 q 587 0 600 0 l 278 0 q 220 227 262 0 q 51 1004 105 735 l 51 1007 l 61 1017 z "},"W":{"ha":1234,"x_min":51,"x_max":1183,"o":"m 61 1017 l 278 1017 q 319 816 296 1017 q 363 359 342 615 q 373 329 363 329 l 383 329 l 393 339 l 393 376 l 434 668 l 488 1014 l 492 1017 l 749 1017 q 780 841 763 1017 q 821 546 787 830 q 848 336 837 465 l 858 329 l 861 329 q 910 628 878 329 q 943 990 943 928 q 960 1017 952 1017 l 1173 1017 l 1183 1010 q 1044 24 1061 195 q 1014 0 1034 0 l 736 0 q 646 588 702 0 q 617 709 637 709 q 604 668 604 704 q 505 3 522 3 l 488 0 l 220 0 q 171 128 186 0 q 51 1010 156 256 l 61 1017 z "},"w":{"ha":1234,"x_min":51,"x_max":1183,"o":"m 61 1017 l 278 1017 q 319 816 296 1017 q 363 359 342 615 q 373 329 363 329 l 383 329 l 393 339 l 393 376 l 434 668 l 488 1014 l 492 1017 l 749 1017 q 780 841 763 1017 q 821 546 787 830 q 848 336 837 465 l 858 329 l 861 329 q 910 628 878 329 q 943 990 943 928 q 960 1017 952 1017 l 1173 1017 l 1183 1010 q 1044 24 1061 195 q 1014 0 1034 0 l 736 0 q 646 588 702 0 q 617 709 637 709 q 604 668 604 704 q 505 3 522 3 l 488 0 l 220 0 q 171 128 186 0 q 51 1010 156 256 l 61 1017 z "},"X":{"ha":949,"x_min":51,"x_max":899,"o":"m 58 1017 l 305 1017 q 363 939 327 1017 l 475 753 q 631 1014 501 788 l 644 1017 l 892 1017 l 899 1010 q 614 509 614 517 q 899 7 899 15 l 892 0 l 648 0 q 600 64 626 0 q 481 268 583 85 l 475 268 q 319 3 465 262 l 302 0 l 58 0 q 51 10 51 0 q 336 512 336 501 q 51 1010 317 554 l 58 1017 z "},"x":{"ha":949,"x_min":51,"x_max":899,"o":"m 58 1017 l 305 1017 q 363 939 327 1017 l 475 753 q 631 1014 501 788 l 644 1017 l 892 1017 l 899 1010 q 614 509 614 517 q 899 7 899 15 l 892 0 l 648 0 q 600 64 626 0 q 481 268 583 85 l 475 268 q 319 3 465 262 l 302 0 l 58 0 q 51 10 51 0 q 336 512 336 501 q 51 1010 317 554 l 58 1017 z "},"Y":{"ha":977,"x_min":51,"x_max":926,"o":"m 51 1017 l 302 1017 q 380 905 327 1017 l 488 729 l 495 729 q 661 1014 653 1013 l 675 1017 l 926 1017 l 926 1007 q 607 448 610 465 l 607 10 l 597 0 l 380 0 l 370 10 l 370 448 q 51 1007 363 472 l 51 1017 z "},"y":{"ha":977,"x_min":51,"x_max":926,"o":"m 51 1017 l 302 1017 q 380 905 327 1017 l 488 729 l 495 729 q 661 1014 653 1013 l 675 1017 l 926 1017 l 926 1007 q 607 448 610 465 l 607 10 l 597 0 l 380 0 l 370 10 l 370 448 q 51 1007 363 472 l 51 1017 z "},"Z":{"ha":766,"x_min":51,"x_max":715,"o":"m 61 1017 l 705 1017 l 715 1007 l 715 709 q 604 587 715 690 l 264 244 l 264 237 l 705 237 l 715 227 l 715 10 l 705 0 l 61 0 l 51 10 l 51 353 q 200 512 51 372 l 458 773 l 458 780 l 61 780 l 51 790 l 51 1007 l 61 1017 z "},"z":{"ha":766,"x_min":51,"x_max":715,"o":"m 61 1017 l 705 1017 l 715 1007 l 715 709 q 604 587 715 690 l 264 244 l 264 237 l 705 237 l 715 227 l 715 10 l 705 0 l 61 0 l 51 10 l 51 353 q 200 512 51 372 l 458 773 l 458 780 l 61 780 l 51 790 l 51 1007 l 61 1017 z "},"[":{"ha":386,"x_min":0,"x_max":0,"o":""},"\\":{"ha":386,"x_min":0,"x_max":0,"o":""},"]":{"ha":386,"x_min":0,"x_max":0,"o":""},"^":{"ha":652,"x_min":0,"x_max":0,"o":""},"_":{"ha":772,"x_min":0,"x_max":0,"o":""},"{":{"ha":464,"x_min":0,"x_max":0,"o":""},"|":{"ha":361,"x_min":0,"x_max":0,"o":""},"}":{"ha":464,"x_min":0,"x_max":0,"o":""},"~":{"ha":811,"x_min":0,"x_max":0,"o":""},"¡":{"ha":463,"x_min":0,"x_max":0,"o":""},"¢":{"ha":772,"x_min":0,"x_max":0,"o":""},"£":{"ha":772,"x_min":0,"x_max":0,"o":""},"¤":{"ha":772,"x_min":0,"x_max":0,"o":""},"¥":{"ha":772,"x_min":0,"x_max":0,"o":""},"¦":{"ha":361,"x_min":0,"x_max":0,"o":""},"§":{"ha":772,"x_min":0,"x_max":0,"o":""},"¨":{"ha":463,"x_min":0,"x_max":0,"o":""},"©":{"ha":1023,"x_min":0,"x_max":0,"o":""},"ª":{"ha":514,"x_min":0,"x_max":0,"o":""},"«":{"ha":772,"x_min":0,"x_max":0,"o":""},"¬":{"ha":811,"x_min":0,"x_max":0,"o":""},"®":{"ha":1023,"x_min":0,"x_max":0,"o":""},"¯":{"ha":767,"x_min":0,"x_max":0,"o":""},"°":{"ha":555,"x_min":0,"x_max":0,"o":""},"±":{"ha":762,"x_min":0,"x_max":0,"o":""},"²":{"ha":463,"x_min":0,"x_max":0,"o":""},"³":{"ha":463,"x_min":0,"x_max":0,"o":""},"´":{"ha":463,"x_min":0,"x_max":0,"o":""},"µ":{"ha":800,"x_min":0,"x_max":0,"o":""},"¶":{"ha":746,"x_min":0,"x_max":0,"o":""},"·":{"ha":386,"x_min":0,"x_max":0,"o":""},"∙":{"ha":386,"x_min":0,"x_max":0,"o":""},"¸":{"ha":463,"x_min":0,"x_max":0,"o":""},"¹":{"ha":463,"x_min":0,"x_max":0,"o":""},"º":{"ha":507,"x_min":0,"x_max":0,"o":""},"»":{"ha":772,"x_min":0,"x_max":0,"o":""},"¼":{"ha":1158,"x_min":0,"x_max":0,"o":""},"½":{"ha":1158,"x_min":0,"x_max":0,"o":""},"¾":{"ha":1158,"x_min":0,"x_max":0,"o":""},"¿":{"ha":848,"x_min":0,"x_max":0,"o":""},"À":{"ha":926,"x_min":0,"x_max":0,"o":""},"Á":{"ha":926,"x_min":0,"x_max":0,"o":""},"Â":{"ha":926,"x_min":0,"x_max":0,"o":""},"Ã":{"ha":926,"x_min":0,"x_max":0,"o":""},"Ä":{"ha":926,"x_min":0,"x_max":0,"o":""},"Å":{"ha":926,"x_min":0,"x_max":0,"o":""},"Æ":{"ha":1389,"x_min":0,"x_max":0,"o":""},"Ç":{"ha":1003,"x_min":0,"x_max":0,"o":""},"È":{"ha":926,"x_min":0,"x_max":0,"o":""},"É":{"ha":926,"x_min":0,"x_max":0,"o":""},"Ê":{"ha":926,"x_min":0,"x_max":0,"o":""},"Ë":{"ha":926,"x_min":0,"x_max":0,"o":""},"Ì":{"ha":386,"x_min":0,"x_max":0,"o":""},"Í":{"ha":386,"x_min":0,"x_max":0,"o":""},"Î":{"ha":386,"x_min":0,"x_max":0,"o":""},"Ï":{"ha":386,"x_min":0,"x_max":0,"o":""},"Ð":{"ha":1003,"x_min":0,"x_max":0,"o":""},"Ñ":{"ha":1003,"x_min":0,"x_max":0,"o":""},"Ò":{"ha":1080,"x_min":0,"x_max":0,"o":""},"Ó":{"ha":1080,"x_min":0,"x_max":0,"o":""},"Ô":{"ha":1080,"x_min":0,"x_max":0,"o":""},"Õ":{"ha":1080,"x_min":0,"x_max":0,"o":""},"Ö":{"ha":1080,"x_min":0,"x_max":0,"o":""},"×":{"ha":811,"x_min":0,"x_max":0,"o":""},"Ø":{"ha":1080,"x_min":0,"x_max":0,"o":""},"Ù":{"ha":1003,"x_min":0,"x_max":0,"o":""},"Ú":{"ha":1003,"x_min":0,"x_max":0,"o":""},"Û":{"ha":1003,"x_min":0,"x_max":0,"o":""},"Ü":{"ha":1003,"x_min":0,"x_max":0,"o":""},"Ý":{"ha":926,"x_min":0,"x_max":0,"o":""},"Þ":{"ha":926,"x_min":0,"x_max":0,"o":""},"ß":{"ha":848,"x_min":0,"x_max":0,"o":""},"à":{"ha":772,"x_min":0,"x_max":0,"o":""},"á":{"ha":772,"x_min":0,"x_max":0,"o":""},"â":{"ha":772,"x_min":0,"x_max":0,"o":""},"ã":{"ha":772,"x_min":0,"x_max":0,"o":""},"ä":{"ha":772,"x_min":0,"x_max":0,"o":""},"å":{"ha":772,"x_min":0,"x_max":0,"o":""},"æ":{"ha":1235,"x_min":0,"x_max":0,"o":""},"ç":{"ha":694,"x_min":0,"x_max":0,"o":""},"è":{"ha":772,"x_min":0,"x_max":0,"o":""},"é":{"ha":772,"x_min":0,"x_max":0,"o":""},"ê":{"ha":772,"x_min":0,"x_max":0,"o":""},"ë":{"ha":772,"x_min":0,"x_max":0,"o":""},"ì":{"ha":386,"x_min":0,"x_max":0,"o":""},"í":{"ha":386,"x_min":0,"x_max":0,"o":""},"î":{"ha":386,"x_min":0,"x_max":0,"o":""},"ï":{"ha":386,"x_min":0,"x_max":0,"o":""},"ð":{"ha":772,"x_min":0,"x_max":0,"o":""},"ñ":{"ha":772,"x_min":0,"x_max":0,"o":""},"ò":{"ha":772,"x_min":0,"x_max":0,"o":""},"ó":{"ha":772,"x_min":0,"x_max":0,"o":""},"ô":{"ha":772,"x_min":0,"x_max":0,"o":""},"õ":{"ha":772,"x_min":0,"x_max":0,"o":""},"ö":{"ha":772,"x_min":0,"x_max":0,"o":""},"÷":{"ha":762,"x_min":0,"x_max":0,"o":""},"ø":{"ha":848,"x_min":0,"x_max":0,"o":""},"ù":{"ha":772,"x_min":0,"x_max":0,"o":""},"ú":{"ha":772,"x_min":0,"x_max":0,"o":""},"û":{"ha":772,"x_min":0,"x_max":0,"o":""},"ü":{"ha":772,"x_min":0,"x_max":0,"o":""},"ý":{"ha":694,"x_min":0,"x_max":0,"o":""},"þ":{"ha":772,"x_min":0,"x_max":0,"o":""},"ÿ":{"ha":694,"x_min":0,"x_max":0,"o":""},"Ā":{"ha":926,"x_min":0,"x_max":0,"o":""},"ā":{"ha":772,"x_min":0,"x_max":0,"o":""},"Ă":{"ha":926,"x_min":0,"x_max":0,"o":""},"ă":{"ha":772,"x_min":0,"x_max":0,"o":""},"Ą":{"ha":926,"x_min":0,"x_max":0,"o":""},"ą":{"ha":772,"x_min":0,"x_max":0,"o":""},"Ć":{"ha":1003,"x_min":0,"x_max":0,"o":""},"ć":{"ha":694,"x_min":0,"x_max":0,"o":""},"Ĉ":{"ha":1003,"x_min":0,"x_max":0,"o":""},"ĉ":{"ha":694,"x_min":0,"x_max":0,"o":""},"Ċ":{"ha":1003,"x_min":0,"x_max":0,"o":""},"ċ":{"ha":694,"x_min":0,"x_max":0,"o":""},"Č":{"ha":1003,"x_min":0,"x_max":0,"o":""},"č":{"ha":694,"x_min":0,"x_max":0,"o":""},"Ď":{"ha":1003,"x_min":0,"x_max":0,"o":""},"ď":{"ha":854,"x_min":0,"x_max":0,"o":""},"Đ":{"ha":1003,"x_min":0,"x_max":0,"o":""},"đ":{"ha":772,"x_min":0,"x_max":0,"o":""},"Ē":{"ha":926,"x_min":0,"x_max":0,"o":""},"ē":{"ha":772,"x_min":0,"x_max":0,"o":""},"Ĕ":{"ha":926,"x_min":0,"x_max":0,"o":""},"ĕ":{"ha":772,"x_min":0,"x_max":0,"o":""},"Ė":{"ha":926,"x_min":0,"x_max":0,"o":""},"ė":{"ha":772,"x_min":0,"x_max":0,"o":""},"Ę":{"ha":926,"x_min":0,"x_max":0,"o":""},"ę":{"ha":772,"x_min":0,"x_max":0,"o":""},"Ě":{"ha":926,"x_min":0,"x_max":0,"o":""},"ě":{"ha":772,"x_min":0,"x_max":0,"o":""},"Ĝ":{"ha":1080,"x_min":0,"x_max":0,"o":""},"ĝ":{"ha":772,"x_min":0,"x_max":0,"o":""},"Ğ":{"ha":1080,"x_min":0,"x_max":0,"o":""},"ğ":{"ha":772,"x_min":0,"x_max":0,"o":""},"Ġ":{"ha":1080,"x_min":0,"x_max":0,"o":""},"ġ":{"ha":772,"x_min":0,"x_max":0,"o":""},"Ģ":{"ha":1080,"x_min":0,"x_max":0,"o":""},"ģ":{"ha":772,"x_min":0,"x_max":0,"o":""},"Ĥ":{"ha":1003,"x_min":0,"x_max":0,"o":""},"ĥ":{"ha":772,"x_min":0,"x_max":0,"o":""},"Ħ":{"ha":1003,"x_min":0,"x_max":0,"o":""},"ħ":{"ha":772,"x_min":0,"x_max":0,"o":""},"Ĩ":{"ha":386,"x_min":0,"x_max":0,"o":""},"ĩ":{"ha":386,"x_min":0,"x_max":0,"o":""},"Ī":{"ha":386,"x_min":0,"x_max":0,"o":""},"ī":{"ha":386,"x_min":0,"x_max":0,"o":""},"Ĭ":{"ha":386,"x_min":0,"x_max":0,"o":""},"ĭ":{"ha":386,"x_min":0,"x_max":0,"o":""},"Į":{"ha":386,"x_min":0,"x_max":0,"o":""},"į":{"ha":309,"x_min":0,"x_max":0,"o":""},"İ":{"ha":386,"x_min":0,"x_max":0,"o":""},"ı":{"ha":386,"x_min":0,"x_max":0,"o":""},"Ĳ":{"ha":1021,"x_min":0,"x_max":0,"o":""},"ĳ":{"ha":616,"x_min":0,"x_max":0,"o":""},"Ĵ":{"ha":694,"x_min":0,"x_max":0,"o":""},"ĵ":{"ha":309,"x_min":0,"x_max":0,"o":""},"Ķ":{"ha":926,"x_min":0,"x_max":0,"o":""},"ķ":{"ha":694,"x_min":0,"x_max":0,"o":""},"ĸ":{"ha":694,"x_min":0,"x_max":0,"o":""},"Ĺ":{"ha":772,"x_min":0,"x_max":0,"o":""},"ĺ":{"ha":309,"x_min":0,"x_max":0,"o":""},"Ļ":{"ha":772,"x_min":0,"x_max":0,"o":""},"ļ":{"ha":309,"x_min":0,"x_max":0,"o":""},"Ľ":{"ha":772,"x_min":0,"x_max":0,"o":""},"ľ":{"ha":405,"x_min":0,"x_max":0,"o":""},"Ŀ":{"ha":772,"x_min":0,"x_max":0,"o":""},"ŀ":{"ha":464,"x_min":0,"x_max":0,"o":""},"Ł":{"ha":772,"x_min":0,"x_max":0,"o":""},"ł":{"ha":309,"x_min":0,"x_max":0,"o":""},"Ń":{"ha":1003,"x_min":0,"x_max":0,"o":""},"ń":{"ha":772,"x_min":0,"x_max":0,"o":""},"Ņ":{"ha":1003,"x_min":0,"x_max":0,"o":""},"ņ":{"ha":772,"x_min":0,"x_max":0,"o":""},"Ň":{"ha":1003,"x_min":0,"x_max":0,"o":""},"ň":{"ha":772,"x_min":0,"x_max":0,"o":""},"ŉ":{"ha":839,"x_min":0,"x_max":0,"o":""},"Ŋ":{"ha":1004,"x_min":0,"x_max":0,"o":""},"ŋ":{"ha":772,"x_min":0,"x_max":0,"o":""},"Ō":{"ha":1080,"x_min":0,"x_max":0,"o":""},"ō":{"ha":772,"x_min":0,"x_max":0,"o":""},"Ŏ":{"ha":1080,"x_min":0,"x_max":0,"o":""},"ŏ":{"ha":772,"x_min":0,"x_max":0,"o":""},"Ő":{"ha":1080,"x_min":0,"x_max":0,"o":""},"ő":{"ha":772,"x_min":0,"x_max":0,"o":""},"Œ":{"ha":1389,"x_min":0,"x_max":0,"o":""},"œ":{"ha":1311,"x_min":0,"x_max":0,"o":""},"Ŕ":{"ha":1003,"x_min":0,"x_max":0,"o":""},"ŕ":{"ha":463,"x_min":0,"x_max":0,"o":""},"Ŗ":{"ha":1003,"x_min":0,"x_max":0,"o":""},"ŗ":{"ha":463,"x_min":0,"x_max":0,"o":""},"Ř":{"ha":1003,"x_min":0,"x_max":0,"o":""},"ř":{"ha":463,"x_min":0,"x_max":0,"o":""},"Ś":{"ha":926,"x_min":0,"x_max":0,"o":""},"ś":{"ha":694,"x_min":0,"x_max":0,"o":""},"Ŝ":{"ha":926,"x_min":0,"x_max":0,"o":""},"ŝ":{"ha":694,"x_min":0,"x_max":0,"o":""},"Ş":{"ha":926,"x_min":0,"x_max":0,"o":""},"ş":{"ha":694,"x_min":0,"x_max":0,"o":""},"Š":{"ha":926,"x_min":0,"x_max":0,"o":""},"š":{"ha":694,"x_min":0,"x_max":0,"o":""},"Ţ":{"ha":848,"x_min":0,"x_max":0,"o":""},"ţ":{"ha":386,"x_min":0,"x_max":0,"o":""},"Ť":{"ha":848,"x_min":0,"x_max":0,"o":""},"ť":{"ha":521,"x_min":0,"x_max":0,"o":""},"Ŧ":{"ha":848,"x_min":0,"x_max":0,"o":""},"ŧ":{"ha":386,"x_min":0,"x_max":0,"o":""},"Ũ":{"ha":1003,"x_min":0,"x_max":0,"o":""},"ũ":{"ha":772,"x_min":0,"x_max":0,"o":""},"Ū":{"ha":1003,"x_min":0,"x_max":0,"o":""},"ū":{"ha":772,"x_min":0,"x_max":0,"o":""},"Ŭ":{"ha":1003,"x_min":0,"x_max":0,"o":""},"ŭ":{"ha":772,"x_min":0,"x_max":0,"o":""},"Ů":{"ha":1003,"x_min":0,"x_max":0,"o":""},"ů":{"ha":772,"x_min":0,"x_max":0,"o":""},"Ű":{"ha":1003,"x_min":0,"x_max":0,"o":""},"ű":{"ha":772,"x_min":0,"x_max":0,"o":""},"Ų":{"ha":1003,"x_min":0,"x_max":0,"o":""},"ų":{"ha":772,"x_min":0,"x_max":0,"o":""},"Ŵ":{"ha":1311,"x_min":0,"x_max":0,"o":""},"ŵ":{"ha":1003,"x_min":0,"x_max":0,"o":""},"Ŷ":{"ha":926,"x_min":0,"x_max":0,"o":""},"ŷ":{"ha":694,"x_min":0,"x_max":0,"o":""},"Ÿ":{"ha":926,"x_min":0,"x_max":0,"o":""},"Ź":{"ha":848,"x_min":0,"x_max":0,"o":""},"ź":{"ha":694,"x_min":0,"x_max":0,"o":""},"Ż":{"ha":848,"x_min":0,"x_max":0,"o":""},"ż":{"ha":694,"x_min":0,"x_max":0,"o":""},"Ž":{"ha":848,"x_min":0,"x_max":0,"o":""},"ž":{"ha":694,"x_min":0,"x_max":0,"o":""},"ſ":{"ha":309,"x_min":0,"x_max":0,"o":""},"ƒ":{"ha":772,"x_min":0,"x_max":0,"o":""},"Ǻ":{"ha":926,"x_min":0,"x_max":0,"o":""},"ǻ":{"ha":772,"x_min":0,"x_max":0,"o":""},"Ǽ":{"ha":1389,"x_min":0,"x_max":0,"o":""},"ǽ":{"ha":1235,"x_min":0,"x_max":0,"o":""},"Ǿ":{"ha":1080,"x_min":0,"x_max":0,"o":""},"ǿ":{"ha":848,"x_min":0,"x_max":0,"o":""},"ˆ":{"ha":463,"x_min":0,"x_max":0,"o":""},"ˇ":{"ha":463,"x_min":0,"x_max":0,"o":""},"ˉ":{"ha":463,"x_min":0,"x_max":0,"o":""},"˘":{"ha":463,"x_min":0,"x_max":0,"o":""},"˙":{"ha":463,"x_min":0,"x_max":0,"o":""},"˚":{"ha":463,"x_min":0,"x_max":0,"o":""},"˛":{"ha":463,"x_min":0,"x_max":0,"o":""},"˜":{"ha":463,"x_min":0,"x_max":0,"o":""},"˝":{"ha":463,"x_min":0,"x_max":0,"o":""},"΄":{"ha":463,"x_min":0,"x_max":0,"o":""},"΅":{"ha":463,"x_min":0,"x_max":0,"o":""},"Ά":{"ha":927,"x_min":0,"x_max":0,"o":""},"·":{"ha":386,"x_min":0,"x_max":0,"o":""},"Έ":{"ha":1089,"x_min":0,"x_max":0,"o":""},"Ή":{"ha":1164,"x_min":0,"x_max":0,"o":""},"Ί":{"ha":533,"x_min":0,"x_max":0,"o":""},"Ό":{"ha":1076,"x_min":0,"x_max":0,"o":""},"Ύ":{"ha":1188,"x_min":0,"x_max":0,"o":""},"Ώ":{"ha":1045,"x_min":0,"x_max":0,"o":""},"ΐ":{"ha":309,"x_min":0,"x_max":0,"o":""},"Α":{"ha":926,"x_min":0,"x_max":0,"o":""},"Β":{"ha":926,"x_min":0,"x_max":0,"o":""},"Γ":{"ha":765,"x_min":0,"x_max":0,"o":""},"Δ":{"ha":928,"x_min":0,"x_max":0,"o":""},"Ε":{"ha":926,"x_min":0,"x_max":0,"o":""},"Ζ":{"ha":848,"x_min":0,"x_max":0,"o":""},"Η":{"ha":1003,"x_min":0,"x_max":0,"o":""},"Θ":{"ha":1080,"x_min":0,"x_max":0,"o":""},"Ι":{"ha":386,"x_min":0,"x_max":0,"o":""},"Κ":{"ha":926,"x_min":0,"x_max":0,"o":""},"Λ":{"ha":928,"x_min":0,"x_max":0,"o":""},"Μ":{"ha":1157,"x_min":0,"x_max":0,"o":""},"Ν":{"ha":1003,"x_min":0,"x_max":0,"o":""},"Ξ":{"ha":903,"x_min":0,"x_max":0,"o":""},"Ο":{"ha":1080,"x_min":0,"x_max":0,"o":""},"Π":{"ha":1003,"x_min":0,"x_max":0,"o":""},"Ρ":{"ha":926,"x_min":0,"x_max":0,"o":""},"Σ":{"ha":859,"x_min":0,"x_max":0,"o":""},"Τ":{"ha":848,"x_min":0,"x_max":0,"o":""},"Υ":{"ha":926,"x_min":0,"x_max":0,"o":""},"Φ":{"ha":1108,"x_min":0,"x_max":0,"o":""},"Χ":{"ha":926,"x_min":0,"x_max":0,"o":""},"Ψ":{"ha":1160,"x_min":0,"x_max":0,"o":""},"Ω":{"ha":1038,"x_min":0,"x_max":0,"o":""},"Ϊ":{"ha":386,"x_min":0,"x_max":0,"o":""},"Ϋ":{"ha":926,"x_min":0,"x_max":0,"o":""},"ά":{"ha":803,"x_min":0,"x_max":0,"o":""},"έ":{"ha":619,"x_min":0,"x_max":0,"o":""},"ή":{"ha":772,"x_min":0,"x_max":0,"o":""},"ί":{"ha":309,"x_min":0,"x_max":0,"o":""},"ΰ":{"ha":760,"x_min":0,"x_max":0,"o":""},"α":{"ha":803,"x_min":0,"x_max":0,"o":""},"β":{"ha":799,"x_min":0,"x_max":0,"o":""},"γ":{"ha":694,"x_min":0,"x_max":0,"o":""},"δ":{"ha":773,"x_min":0,"x_max":0,"o":""},"ε":{"ha":619,"x_min":0,"x_max":0,"o":""},"ζ":{"ha":612,"x_min":0,"x_max":0,"o":""},"η":{"ha":772,"x_min":0,"x_max":0,"o":""},"θ":{"ha":772,"x_min":0,"x_max":0,"o":""},"ι":{"ha":309,"x_min":0,"x_max":0,"o":""},"κ":{"ha":694,"x_min":0,"x_max":0,"o":""},"λ":{"ha":694,"x_min":0,"x_max":0,"o":""},"μ":{"ha":800,"x_min":0,"x_max":0,"o":""},"ν":{"ha":694,"x_min":0,"x_max":0,"o":""},"ξ":{"ha":622,"x_min":0,"x_max":0,"o":""},"ο":{"ha":772,"x_min":0,"x_max":0,"o":""},"π":{"ha":958,"x_min":0,"x_max":0,"o":""},"ρ":{"ha":790,"x_min":0,"x_max":0,"o":""},"ς":{"ha":669,"x_min":0,"x_max":0,"o":""},"σ":{"ha":857,"x_min":0,"x_max":0,"o":""},"τ":{"ha":549,"x_min":0,"x_max":0,"o":""},"υ":{"ha":760,"x_min":0,"x_max":0,"o":""},"φ":{"ha":901,"x_min":0,"x_max":0,"o":""},"χ":{"ha":729,"x_min":0,"x_max":0,"o":""},"ψ":{"ha":990,"x_min":0,"x_max":0,"o":""},"ω":{"ha":1084,"x_min":0,"x_max":0,"o":""},"ϊ":{"ha":309,"x_min":0,"x_max":0,"o":""},"ϋ":{"ha":760,"x_min":0,"x_max":0,"o":""},"ό":{"ha":772,"x_min":0,"x_max":0,"o":""},"ύ":{"ha":760,"x_min":0,"x_max":0,"o":""},"ώ":{"ha":1084,"x_min":0,"x_max":0,"o":""},"Ё":{"ha":927,"x_min":0,"x_max":0,"o":""},"Ђ":{"ha":1201,"x_min":0,"x_max":0,"o":""},"Ѓ":{"ha":752,"x_min":0,"x_max":0,"o":""},"Є":{"ha":998,"x_min":0,"x_max":0,"o":""},"Ѕ":{"ha":926,"x_min":0,"x_max":0,"o":""},"І":{"ha":386,"x_min":0,"x_max":0,"o":""},"Ї":{"ha":386,"x_min":0,"x_max":0,"o":""},"Ј":{"ha":694,"x_min":0,"x_max":0,"o":""},"Љ":{"ha":1468,"x_min":0,"x_max":0,"o":""},"Њ":{"ha":1403,"x_min":0,"x_max":0,"o":""},"Ћ":{"ha":1186,"x_min":0,"x_max":0,"o":""},"Ќ":{"ha":809,"x_min":0,"x_max":0,"o":""},"Ў":{"ha":882,"x_min":0,"x_max":0,"o":""},"Џ":{"ha":998,"x_min":0,"x_max":0,"o":""},"А":{"ha":926,"x_min":0,"x_max":0,"o":""},"Б":{"ha":911,"x_min":0,"x_max":0,"o":""},"В":{"ha":926,"x_min":0,"x_max":0,"o":""},"Г":{"ha":752,"x_min":0,"x_max":0,"o":""},"Д":{"ha":941,"x_min":0,"x_max":0,"o":""},"Е":{"ha":926,"x_min":0,"x_max":0,"o":""},"Ж":{"ha":1282,"x_min":0,"x_max":0,"o":""},"З":{"ha":839,"x_min":0,"x_max":0,"o":""},"И":{"ha":998,"x_min":0,"x_max":0,"o":""},"Й":{"ha":998,"x_min":0,"x_max":0,"o":""},"К":{"ha":809,"x_min":0,"x_max":0,"o":""},"Л":{"ha":911,"x_min":0,"x_max":0,"o":""},"М":{"ha":1157,"x_min":0,"x_max":0,"o":""},"Н":{"ha":1003,"x_min":0,"x_max":0,"o":""},"О":{"ha":1080,"x_min":0,"x_max":0,"o":""},"П":{"ha":998,"x_min":0,"x_max":0,"o":""},"Р":{"ha":926,"x_min":0,"x_max":0,"o":""},"С":{"ha":1003,"x_min":0,"x_max":0,"o":""},"Т":{"ha":848,"x_min":0,"x_max":0,"o":""},"У":{"ha":882,"x_min":0,"x_max":0,"o":""},"Ф":{"ha":1056,"x_min":0,"x_max":0,"o":""},"Х":{"ha":926,"x_min":0,"x_max":0,"o":""},"Ц":{"ha":1027,"x_min":0,"x_max":0,"o":""},"Ч":{"ha":926,"x_min":0,"x_max":0,"o":""},"Ш":{"ha":1273,"x_min":0,"x_max":0,"o":""},"Щ":{"ha":1302,"x_min":0,"x_max":0,"o":""},"Ъ":{"ha":1099,"x_min":0,"x_max":0,"o":""},"Ы":{"ha":1230,"x_min":0,"x_max":0,"o":""},"Ь":{"ha":911,"x_min":0,"x_max":0,"o":""},"Э":{"ha":998,"x_min":0,"x_max":0,"o":""},"Ю":{"ha":1403,"x_min":0,"x_max":0,"o":""},"Я":{"ha":1003,"x_min":0,"x_max":0,"o":""},"а":{"ha":772,"x_min":0,"x_max":0,"o":""},"б":{"ha":795,"x_min":0,"x_max":0,"o":""},"в":{"ha":738,"x_min":0,"x_max":0,"o":""},"г":{"ha":507,"x_min":0,"x_max":0,"o":""},"д":{"ha":810,"x_min":0,"x_max":0,"o":""},"е":{"ha":772,"x_min":0,"x_max":0,"o":""},"ж":{"ha":929,"x_min":0,"x_max":0,"o":""},"з":{"ha":637,"x_min":0,"x_max":0,"o":""},"и":{"ha":776,"x_min":0,"x_max":0,"o":""},"й":{"ha":776,"x_min":0,"x_max":0,"o":""},"к":{"ha":608,"x_min":0,"x_max":0,"o":""},"л":{"ha":810,"x_min":0,"x_max":0,"o":""},"м":{"ha":955,"x_min":0,"x_max":0,"o":""},"н":{"ha":767,"x_min":0,"x_max":0,"o":""},"о":{"ha":772,"x_min":0,"x_max":0,"o":""},"п":{"ha":752,"x_min":0,"x_max":0,"o":""},"р":{"ha":772,"x_min":0,"x_max":0,"o":""},"с":{"ha":694,"x_min":0,"x_max":0,"o":""},"т":{"ha":636,"x_min":0,"x_max":0,"o":""},"у":{"ha":694,"x_min":0,"x_max":0,"o":""},"ф":{"ha":1143,"x_min":0,"x_max":0,"o":""},"х":{"ha":694,"x_min":0,"x_max":0,"o":""},"ц":{"ha":795,"x_min":0,"x_max":0,"o":""},"ч":{"ha":724,"x_min":0,"x_max":0,"o":""},"ш":{"ha":1114,"x_min":0,"x_max":0,"o":""},"щ":{"ha":1143,"x_min":0,"x_max":0,"o":""},"ъ":{"ha":868,"x_min":0,"x_max":0,"o":""},"ы":{"ha":998,"x_min":0,"x_max":0,"o":""},"ь":{"ha":724,"x_min":0,"x_max":0,"o":""},"э":{"ha":709,"x_min":0,"x_max":0,"o":""},"ю":{"ha":1042,"x_min":0,"x_max":0,"o":""},"я":{"ha":752,"x_min":0,"x_max":0,"o":""},"ё":{"ha":772,"x_min":0,"x_max":0,"o":""},"ђ":{"ha":772,"x_min":0,"x_max":0,"o":""},"ѓ":{"ha":507,"x_min":0,"x_max":0,"o":""},"є":{"ha":709,"x_min":0,"x_max":0,"o":""},"ѕ":{"ha":694,"x_min":0,"x_max":0,"o":""},"і":{"ha":309,"x_min":0,"x_max":0,"o":""},"ї":{"ha":386,"x_min":0,"x_max":0,"o":""},"ј":{"ha":309,"x_min":0,"x_max":0,"o":""},"љ":{"ha":1259,"x_min":0,"x_max":0,"o":""},"њ":{"ha":1128,"x_min":0,"x_max":0,"o":""},"ћ":{"ha":772,"x_min":0,"x_max":0,"o":""},"ќ":{"ha":608,"x_min":0,"x_max":0,"o":""},"ў":{"ha":694,"x_min":0,"x_max":0,"o":""},"џ":{"ha":767,"x_min":0,"x_max":0,"o":""},"Ґ":{"ha":679,"x_min":0,"x_max":0,"o":""},"ґ":{"ha":571,"x_min":0,"x_max":0,"o":""},"Ẁ":{"ha":1311,"x_min":0,"x_max":0,"o":""},"ẁ":{"ha":1003,"x_min":0,"x_max":0,"o":""},"Ẃ":{"ha":1311,"x_min":0,"x_max":0,"o":""},"ẃ":{"ha":1003,"x_min":0,"x_max":0,"o":""},"Ẅ":{"ha":1311,"x_min":0,"x_max":0,"o":""},"ẅ":{"ha":1003,"x_min":0,"x_max":0,"o":""},"Ỳ":{"ha":926,"x_min":0,"x_max":0,"o":""},"ỳ":{"ha":694,"x_min":0,"x_max":0,"o":""},"–":{"ha":772,"x_min":0,"x_max":0,"o":""},"—":{"ha":1389,"x_min":0,"x_max":0,"o":""},"―":{"ha":1389,"x_min":0,"x_max":0,"o":""},"‗":{"ha":767,"x_min":0,"x_max":0,"o":""},"‘":{"ha":309,"x_min":0,"x_max":0,"o":""},"’":{"ha":309,"x_min":0,"x_max":0,"o":""},"‚":{"ha":309,"x_min":0,"x_max":0,"o":""},"‛":{"ha":309,"x_min":0,"x_max":0,"o":""},"“":{"ha":463,"x_min":0,"x_max":0,"o":""},"”":{"ha":463,"x_min":0,"x_max":0,"o":""},"„":{"ha":463,"x_min":0,"x_max":0,"o":""},"†":{"ha":772,"x_min":0,"x_max":0,"o":""},"‡":{"ha":772,"x_min":0,"x_max":0,"o":""},"•":{"ha":486,"x_min":0,"x_max":0,"o":""},"…":{"ha":1389,"x_min":0,"x_max":0,"o":""},"‰":{"ha":1389,"x_min":0,"x_max":0,"o":""},"′":{"ha":260,"x_min":0,"x_max":0,"o":""},"″":{"ha":492,"x_min":0,"x_max":0,"o":""},"‹":{"ha":463,"x_min":0,"x_max":0,"o":""},"›":{"ha":463,"x_min":0,"x_max":0,"o":""},"‼":{"ha":694,"x_min":0,"x_max":0,"o":""},"‾":{"ha":463,"x_min":0,"x_max":0,"o":""},"⁄":{"ha":232,"x_min":0,"x_max":0,"o":""},"∕":{"ha":232,"x_min":0,"x_max":0,"o":""},"ⁿ":{"ha":507,"x_min":0,"x_max":0,"o":""},"₣":{"ha":772,"x_min":0,"x_max":0,"o":""},"₤":{"ha":772,"x_min":0,"x_max":0,"o":""},"₧":{"ha":1519,"x_min":0,"x_max":0,"o":""},"€":{"ha":772,"x_min":0,"x_max":0,"o":""},"℅":{"ha":1230,"x_min":0,"x_max":0,"o":""},"ℓ":{"ha":449,"x_min":0,"x_max":0,"o":""},"№":{"ha":1490,"x_min":0,"x_max":0,"o":""},"™":{"ha":1389,"x_min":0,"x_max":0,"o":""},"Ω":{"ha":1067,"x_min":0,"x_max":0,"o":""},"℮":{"ha":833,"x_min":0,"x_max":0,"o":""},"⅛":{"ha":1158,"x_min":0,"x_max":0,"o":""},"⅜":{"ha":1158,"x_min":0,"x_max":0,"o":""},"⅝":{"ha":1158,"x_min":0,"x_max":0,"o":""},"⅞":{"ha":1158,"x_min":0,"x_max":0,"o":""},"←":{"ha":1389,"x_min":0,"x_max":0,"o":""},"↑":{"ha":694,"x_min":0,"x_max":0,"o":""},"→":{"ha":1389,"x_min":0,"x_max":0,"o":""},"↓":{"ha":694,"x_min":0,"x_max":0,"o":""},"↔":{"ha":1389,"x_min":0,"x_max":0,"o":""},"↕":{"ha":694,"x_min":0,"x_max":0,"o":""},"↨":{"ha":694,"x_min":0,"x_max":0,"o":""},"∂":{"ha":686,"x_min":0,"x_max":0,"o":""},"∆":{"ha":850,"x_min":0,"x_max":0,"o":""},"∏":{"ha":1143,"x_min":0,"x_max":0,"o":""},"∑":{"ha":990,"x_min":0,"x_max":0,"o":""},"−":{"ha":811,"x_min":0,"x_max":0,"o":""},"√":{"ha":762,"x_min":0,"x_max":0,"o":""},"∞":{"ha":990,"x_min":0,"x_max":0,"o":""},"∟":{"ha":1360,"x_min":0,"x_max":0,"o":""},"∩":{"ha":998,"x_min":0,"x_max":0,"o":""},"∫":{"ha":380,"x_min":0,"x_max":0,"o":""},"≈":{"ha":762,"x_min":0,"x_max":0,"o":""},"≠":{"ha":762,"x_min":0,"x_max":0,"o":""},"≡":{"ha":810,"x_min":0,"x_max":0,"o":""},"≤":{"ha":762,"x_min":0,"x_max":0,"o":""},"≥":{"ha":762,"x_min":0,"x_max":0,"o":""},"⌂":{"ha":839,"x_min":0,"x_max":0,"o":""},"⌐":{"ha":811,"x_min":0,"x_max":0,"o":""},"⌠":{"ha":839,"x_min":0,"x_max":0,"o":""},"⌡":{"ha":839,"x_min":0,"x_max":0,"o":""},"─":{"ha":984,"x_min":0,"x_max":0,"o":""},"│":{"ha":868,"x_min":0,"x_max":0,"o":""},"┌":{"ha":984,"x_min":0,"x_max":0,"o":""},"┐":{"ha":984,"x_min":0,"x_max":0,"o":""},"└":{"ha":984,"x_min":0,"x_max":0,"o":""},"┘":{"ha":984,"x_min":0,"x_max":0,"o":""},"├":{"ha":984,"x_min":0,"x_max":0,"o":""},"┤":{"ha":984,"x_min":0,"x_max":0,"o":""},"┬":{"ha":984,"x_min":0,"x_max":0,"o":""},"┴":{"ha":984,"x_min":0,"x_max":0,"o":""},"┼":{"ha":984,"x_min":0,"x_max":0,"o":""},"═":{"ha":984,"x_min":0,"x_max":0,"o":""},"║":{"ha":984,"x_min":0,"x_max":0,"o":""},"╒":{"ha":984,"x_min":0,"x_max":0,"o":""},"╓":{"ha":984,"x_min":0,"x_max":0,"o":""},"╔":{"ha":984,"x_min":0,"x_max":0,"o":""},"╕":{"ha":984,"x_min":0,"x_max":0,"o":""},"╖":{"ha":984,"x_min":0,"x_max":0,"o":""},"╗":{"ha":984,"x_min":0,"x_max":0,"o":""},"╘":{"ha":984,"x_min":0,"x_max":0,"o":""},"╙":{"ha":984,"x_min":0,"x_max":0,"o":""},"╚":{"ha":984,"x_min":0,"x_max":0,"o":""},"╛":{"ha":984,"x_min":0,"x_max":0,"o":""},"╜":{"ha":984,"x_min":0,"x_max":0,"o":""},"╝":{"ha":984,"x_min":0,"x_max":0,"o":""},"╞":{"ha":984,"x_min":0,"x_max":0,"o":""},"╟":{"ha":984,"x_min":0,"x_max":0,"o":""},"╠":{"ha":984,"x_min":0,"x_max":0,"o":""},"╡":{"ha":984,"x_min":0,"x_max":0,"o":""},"╢":{"ha":984,"x_min":0,"x_max":0,"o":""},"╣":{"ha":984,"x_min":0,"x_max":0,"o":""},"╤":{"ha":984,"x_min":0,"x_max":0,"o":""},"╥":{"ha":984,"x_min":0,"x_max":0,"o":""},"╦":{"ha":984,"x_min":0,"x_max":0,"o":""},"╧":{"ha":984,"x_min":0,"x_max":0,"o":""},"╨":{"ha":984,"x_min":0,"x_max":0,"o":""},"╩":{"ha":984,"x_min":0,"x_max":0,"o":""},"╪":{"ha":984,"x_min":0,"x_max":0,"o":""},"╫":{"ha":984,"x_min":0,"x_max":0,"o":""},"╬":{"ha":984,"x_min":0,"x_max":0,"o":""},"▀":{"ha":984,"x_min":0,"x_max":0,"o":""},"▄":{"ha":984,"x_min":0,"x_max":0,"o":""},"█":{"ha":984,"x_min":0,"x_max":0,"o":""},"▌":{"ha":984,"x_min":0,"x_max":0,"o":""},"▐":{"ha":984,"x_min":0,"x_max":0,"o":""},"░":{"ha":984,"x_min":0,"x_max":0,"o":""},"▒":{"ha":984,"x_min":0,"x_max":0,"o":""},"▓":{"ha":1013,"x_min":0,"x_max":0,"o":""},"■":{"ha":839,"x_min":0,"x_max":0,"o":""},"□":{"ha":839,"x_min":0,"x_max":0,"o":""},"▪":{"ha":492,"x_min":0,"x_max":0,"o":""},"▫":{"ha":492,"x_min":0,"x_max":0,"o":""},"▬":{"ha":1389,"x_min":0,"x_max":0,"o":""},"▲":{"ha":1375,"x_min":0,"x_max":0,"o":""},"►":{"ha":1375,"x_min":0,"x_max":0,"o":""},"▼":{"ha":1375,"x_min":0,"x_max":0,"o":""},"◄":{"ha":1375,"x_min":0,"x_max":0,"o":""},"◊":{"ha":686,"x_min":0,"x_max":0,"o":""},"○":{"ha":839,"x_min":0,"x_max":0,"o":""},"●":{"ha":839,"x_min":0,"x_max":0,"o":""},"◘":{"ha":839,"x_min":0,"x_max":0,"o":""},"◙":{"ha":839,"x_min":0,"x_max":0,"o":""},"◦":{"ha":492,"x_min":0,"x_max":0,"o":""},"☺":{"ha":1418,"x_min":0,"x_max":0,"o":""},"☻":{"ha":1461,"x_min":0,"x_max":0,"o":""},"☼":{"ha":1273,"x_min":0,"x_max":0,"o":""},"♀":{"ha":1042,"x_min":0,"x_max":0,"o":""},"♂":{"ha":1042,"x_min":0,"x_max":0,"o":""},"♠":{"ha":738,"x_min":0,"x_max":0,"o":""},"♣":{"ha":911,"x_min":0,"x_max":0,"o":""},"♥":{"ha":825,"x_min":0,"x_max":0,"o":""},"♦":{"ha":709,"x_min":0,"x_max":0,"o":""},"♪":{"ha":694,"x_min":0,"x_max":0,"o":""},"♫":{"ha":1042,"x_min":0,"x_max":0,"o":""},"":{"ha":694,"x_min":0,"x_max":0,"o":""},"ﬁ":{"ha":694,"x_min":0,"x_max":0,"o":""},"":{"ha":694,"x_min":0,"x_max":0,"o":""},"ﬂ":{"ha":694,"x_min":0,"x_max":0,"o":""},"":{"ha":463,"x_min":0,"x_max":0,"o":""},"":{"ha":463,"x_min":0,"x_max":0,"o":""}}}
